<svg xmlns="http://www.w3.org/2000/svg" xmlns:xlink="http://www.w3.org/1999/xlink" viewBox="0 0 831 986"><defs><style>.cls-1{fill:none;}.cls-2{clip-path:url(#clip-path);}.cls-3{fill:#bcb8b3;}.cls-4{fill:#fff;}.cls-5{fill:url(#linear-gradient);}</style><clipPath id="clip-path"><path class="cls-1" d="M764,413c3-205-91-314-255-323H71V952L195,722H509c164-9,258-118,255-323"/></clipPath><linearGradient id="linear-gradient" x1="132" y1="402.42" x2="636" y2="402.42" gradientUnits="userSpaceOnUse"><stop offset="0" stop-color="#5a0141"/><stop offset="1" stop-color="#9d2871"/></linearGradient></defs><title>rse_logo_nowords_nobackground</title><g id="Layer_3" data-name="Layer 3"><g class="cls-2"><rect class="cls-3" x="57.5" y="82.5" width="678" height="76"/><rect class="cls-3" x="49" y="228" width="725" height="76"/><rect class="cls-3" x="65" y="366" width="717" height="76"/><rect class="cls-3" x="57" y="504" width="712" height="76"/><rect class="cls-3" x="58" y="650" width="678" height="313"/></g><path class="cls-4" d="M604,674.75H198a49.14,49.14,0,0,1-49-49V208.91c0-26.95,22.05-49,49-43H604c27-6,49,16.05,47,57V639.75C653,652.7,631,674.75,604,674.75Z"/></g><g id="Layer_1" data-name="Layer 1"><rect class="cls-1" x="1" y="1" width="800" height="800"/><rect class="cls-5" x="132" y="145" width="504" height="514.83" rx="49" ry="49"/><path class="cls-4" d="M379.64,319.53a60,60,0,0,1-4.36,23.38,51.08,51.08,0,0,1-29.72,28.94,65.43,65.43,0,0,1-44.78,0,53.21,53.21,0,0,1-17.93-11.23A50.56,50.56,0,0,1,271,342.91a61.29,61.29,0,0,1-4.26-23.38V228.85h25v89.67A49.63,49.63,0,0,0,293.25,331a31,31,0,0,0,5.25,11,27.41,27.41,0,0,0,9.71,7.89q6,3,15,3t15-3a27.32,27.32,0,0,0,9.71-7.89,31,31,0,0,0,5.25-11,49.64,49.64,0,0,0,1.59-12.44V228.85h25Z"/><path class="cls-4" d="M484.86,258.81a30.48,30.48,0,0,0-11.2-8.81,32.85,32.85,0,0,0-14.56-3.54,35.16,35.16,0,0,0-8.72,1.11,26.53,26.53,0,0,0-7.93,3.44,18.87,18.87,0,0,0-5.84,6.08,17,17,0,0,0-2.28,9,16.37,16.37,0,0,0,2,8.3,18.22,18.22,0,0,0,5.45,5.87,36.55,36.55,0,0,0,8.42,4.25q4.95,1.83,10.9,3.65,6.74,2.22,14,5.06a53.91,53.91,0,0,1,13.27,7.48,37,37,0,0,1,9.91,11.74q3.87,7.1,3.86,17.61a45.68,45.68,0,0,1-4.16,20.14,41.27,41.27,0,0,1-11.09,14.27,47,47,0,0,1-16.25,8.5A67,67,0,0,1,451,375.8a72.32,72.32,0,0,1-26.75-5.16,51.76,51.76,0,0,1-21.4-15.29l17.84-17a35.88,35.88,0,0,0,13.77,11.54,38.13,38.13,0,0,0,16.94,4.25,37.68,37.68,0,0,0,8.92-1.11,23.5,23.5,0,0,0,8.22-3.75,20.82,20.82,0,0,0,5.94-6.58,19.35,19.35,0,0,0,2.28-9.81,16.26,16.26,0,0,0-2.57-9.41,23.3,23.3,0,0,0-6.94-6.48,49.53,49.53,0,0,0-10.3-4.76L444.43,308a122.85,122.85,0,0,1-12.68-4.86,41.57,41.57,0,0,1-11.39-7.49,36,36,0,0,1-8.22-11.43q-3.18-6.78-3.17-16.9,0-10.94,4.45-18.83a40,40,0,0,1,11.7-13,51.59,51.59,0,0,1,16.44-7.69,70.3,70.3,0,0,1,18.73-2.53A65.49,65.49,0,0,1,482,229.05a52.81,52.81,0,0,1,19.12,11.54Z"/><path class="cls-4" d="M213.9,428.14h48.74a86,86,0,0,1,19.22,2.13,48.64,48.64,0,0,1,16.54,7A36.24,36.24,0,0,1,310,450q4.35,7.89,4.35,19.23,0,15.58-8.61,25.4t-23.48,13.26l37.44,63.55H289.59l-32.5-60.72H238.86v60.72h-25Zm45.37,61.74a71.38,71.38,0,0,0,10.7-.81,30.26,30.26,0,0,0,9.61-3,18,18,0,0,0,9.81-17,16.62,16.62,0,0,0-2.58-9.62,19.4,19.4,0,0,0-6.54-6,27,27,0,0,0-9-3,62,62,0,0,0-9.81-.81H238.86v40.28Z"/><path class="cls-4" d="M414,458.1a30.46,30.46,0,0,0-11.19-8.81,32.89,32.89,0,0,0-14.57-3.54,35.22,35.22,0,0,0-8.72,1.11,26.84,26.84,0,0,0-7.92,3.44,18.9,18.9,0,0,0-5.85,6.08,17,17,0,0,0-2.28,9,16.27,16.27,0,0,0,2,8.3,18.08,18.08,0,0,0,5.44,5.87,36.43,36.43,0,0,0,8.43,4.25q4.95,1.83,10.89,3.65,6.74,2.22,14,5.06A53.68,53.68,0,0,1,417.49,500a36.83,36.83,0,0,1,9.91,11.74q3.86,7.08,3.86,17.6a45.78,45.78,0,0,1-4.16,20.14A41.42,41.42,0,0,1,416,563.75a46.75,46.75,0,0,1-16.25,8.5,67,67,0,0,1-19.61,2.84,72.28,72.28,0,0,1-26.75-5.16A51.67,51.67,0,0,1,332,554.64l17.83-17a36,36,0,0,0,13.77,11.54,38.19,38.19,0,0,0,16.94,4.25,37.62,37.62,0,0,0,8.92-1.11,23.34,23.34,0,0,0,8.22-3.75,20.63,20.63,0,0,0,5.95-6.58,19.45,19.45,0,0,0,2.28-9.81,16.19,16.19,0,0,0-2.58-9.41,23.26,23.26,0,0,0-6.93-6.48,49.63,49.63,0,0,0-10.31-4.76l-12.48-4.25a118.94,118.94,0,0,1-12.68-4.86,41.82,41.82,0,0,1-11.4-7.48,36.32,36.32,0,0,1-8.22-11.44q-3.17-6.78-3.17-16.9,0-10.94,4.46-18.82a39.89,39.89,0,0,1,11.69-13.06A51.54,51.54,0,0,1,370.73,427a70.22,70.22,0,0,1,18.72-2.53,65.55,65.55,0,0,1,21.7,3.84,52.89,52.89,0,0,1,19.12,11.54Z"/><path class="cls-4" d="M460.19,428.14h92.93v22.27h-68v36.43h64.4v21.45h-64.4v40.49h71.53v22.66H460.19Z"/></g></svg>